<svg width="19" height="18" viewBox="0 0 19 18" fill="none" xmlns="http://www.w3.org/2000/svg">
<g id="Group 73">
<path id="LinkedIn" d="M0.818359 2.41981C0.818359 1.8426 1.02107 1.36641 1.42647 0.991237C1.83187 0.616051 2.35891 0.428467 3.00755 0.428467C3.64462 0.428467 4.16005 0.613159 4.55388 0.982579C4.95928 1.36353 5.16199 1.85991 5.16199 2.47176C5.16199 3.02587 4.96508 3.48762 4.57125 3.85704C4.16586 4.23799 3.63303 4.42847 2.9728 4.42847H2.95543C2.31835 4.42847 1.80292 4.23799 1.40909 3.85704C1.01526 3.47608 0.818359 2.997 0.818359 2.41981ZM1.04423 17.5713V6.00422H4.90137V17.5713H1.04423ZM7.03844 17.5713H10.8956V11.1124C10.8956 10.7084 10.9419 10.3967 11.0346 10.1774C11.1967 9.78488 11.4429 9.45298 11.773 9.18171C12.1031 8.91042 12.5172 8.77478 13.0153 8.77478C14.3126 8.77478 14.9612 9.64635 14.9612 11.3895V17.5713H18.8184V10.9393C18.8184 9.23077 18.413 7.93496 17.6021 7.05184C16.7913 6.16872 15.7199 5.72717 14.3879 5.72717C12.8936 5.72717 11.7296 6.36786 10.8956 7.64924V7.68388H10.8782L10.8956 7.64924V6.00422H7.03844C7.0616 6.37362 7.07319 7.52225 7.07319 9.45011C7.07319 11.378 7.0616 14.085 7.03844 17.5713Z" fill="white"/>
</g>
</svg>
