<svg width="21" height="14" viewBox="0 0 21 14" fill="none" xmlns="http://www.w3.org/2000/svg">
<g id="Group 73">
<path id="YouTube" d="M11.157 13.9799L7.09482 13.904C5.77958 13.8775 4.46105 13.9304 3.1716 13.6563C1.21003 13.2468 1.07107 11.2389 0.925656 9.55462C0.725294 7.18678 0.80286 4.77596 1.18097 2.42789C1.39442 1.11037 2.23446 0.324198 3.53354 0.238648C7.91889 -0.0718273 12.3334 -0.0350327 16.709 0.109815C17.1712 0.123094 17.6364 0.195669 18.0921 0.27828C20.3414 0.681198 20.3963 2.9566 20.5421 4.87205C20.6875 6.80727 20.6261 8.75243 20.3482 10.6745C20.1252 12.2659 19.6986 13.6004 17.8982 13.7293C15.6424 13.8977 13.4385 14.0333 11.1764 13.9902C11.1765 13.9799 11.1635 13.9799 11.157 13.9799ZM8.76884 9.95095C10.4687 8.95354 12.1362 7.97275 13.8264 6.98203C12.1233 5.98461 10.459 5.00382 8.76884 4.0131V9.95095Z" fill="white"/>
</g>
</svg>
